<svg xmlns="http://www.w3.org/2000/svg" width="1200" height="420" viewBox="0 0 1200 420" fill="none">
  <defs>
    <linearGradient id="bg" x1="0" y1="0" x2="1200" y2="420" gradientUnits="userSpaceOnUse">
      <stop stop-color="#f0fdfa"/><stop offset="0.55" stop-color="#ffffff"/><stop offset="1" stop-color="#ecfdf5"/>
    </linearGradient>
  </defs>
  <rect width="1200" height="420" rx="28" fill="url(#bg)"/>
  <rect x="1" y="1" width="1198" height="418" rx="27" stroke="#0f766e" stroke-opacity="0.12"/>
  <g transform="translate(56,56)">
    <rect width="64" height="64" rx="14.08" fill="#0f766e"/>
    <path d="M17 24L22 6.5L29 22Z" fill="#ecfdf5"/>
    <path d="M47 24L42 6.5L35 22Z" fill="#ecfdf5"/>
    <ellipse cx="32" cy="36" rx="19" ry="17.5" fill="#ecfdf5"/>
    <circle cx="23.5" cy="34" r="7.2" fill="#0f766e"/>
    <circle cx="40.5" cy="34" r="7.2" fill="#0f766e"/>
    <circle cx="25.2" cy="32.2" r="2.3" fill="#ecfdf5"/>
    <circle cx="42.2" cy="32.2" r="2.3" fill="#ecfdf5"/>
    <path d="M32 38.5L37 46H27L32 38.5Z" fill="#0f766e"/>
  </g>
  <text x="140" y="98" fill="#0f766e" font-family="ui-sans-serif,system-ui,sans-serif" font-size="22" font-weight="700" letter-spacing="0.08em">SOVA</text>
  <text x="56" y="190" fill="#134e4a" font-family="ui-sans-serif,system-ui,sans-serif" font-size="52" font-weight="750">Performance</text>
  <text x="56" y="242" fill="#0f766e" font-family="ui-sans-serif,system-ui,sans-serif" font-size="22" font-weight="500" opacity="0.85">Identical fixtures · Sova / Axum / Actix</text>
  <g transform="translate(720,90)">
    <rect x="40" y="180" width="40" height="120" rx="8" fill="#0f766e" opacity="0.35"/>
    <rect x="100" y="120" width="40" height="180" rx="8" fill="#0d9488"/>
    <rect x="160" y="80" width="40" height="220" rx="8" fill="#0f766e"/>
    <rect x="220" y="140" width="40" height="160" rx="8" fill="#ecfdf5" stroke="#0f766e" stroke-width="3"/>
    <rect x="280" y="60" width="40" height="240" rx="8" fill="#0d9488" opacity="0.7"/>
  </g>
</svg>