<svg xmlns="http://www.w3.org/2000/svg" width="1200" height="420" viewBox="0 0 1200 420" fill="none">
  <defs>
    <linearGradient id="bg" x1="0" y1="0" x2="1200" y2="420" gradientUnits="userSpaceOnUse">
      <stop stop-color="#f0fdfa"/>
      <stop offset="0.55" stop-color="#ffffff"/>
      <stop offset="1" stop-color="#ecfdf5"/>
    </linearGradient>
    <linearGradient id="glow" x1="780" y1="40" x2="1120" y2="380" gradientUnits="userSpaceOnUse">
      <stop stop-color="#0d9488" stop-opacity="0.18"/>
      <stop offset="1" stop-color="#0f766e" stop-opacity="0"/>
    </linearGradient>
  </defs>
  <rect width="1200" height="420" rx="28" fill="url(#bg)"/>
  <rect width="1200" height="420" rx="28" fill="url(#glow)"/>
  <rect x="1" y="1" width="1198" height="418" rx="27" stroke="#0f766e" stroke-opacity="0.12"/>
  
  <g transform="translate(56,56)">
    <rect width="64" height="64" rx="14.08" fill="#0f766e"/>
    <path d="M17 24L22 6.5L29 22Z" fill="#ecfdf5"/>
    <path d="M47 24L42 6.5L35 22Z" fill="#ecfdf5"/>
    <ellipse cx="32" cy="36" rx="19" ry="17.5" fill="#ecfdf5"/>
    <circle cx="23.5" cy="34" r="7.2" fill="#0f766e"/>
    <circle cx="40.5" cy="34" r="7.2" fill="#0f766e"/>
    <circle cx="25.2" cy="32.2" r="2.3" fill="#ecfdf5"/>
    <circle cx="42.2" cy="32.2" r="2.3" fill="#ecfdf5"/>
    <path d="M32 38.5L37 46H27L32 38.5Z" fill="#0f766e"/>
  </g>
  <text x="140" y="98" fill="#0f766e" font-family="ui-sans-serif, system-ui, -apple-system, Segoe UI, sans-serif" font-size="22" font-weight="700" letter-spacing="0.08em">SOVA</text>
  <text x="56" y="190" fill="#134e4a" font-family="ui-sans-serif, system-ui, -apple-system, Segoe UI, sans-serif" font-size="52" font-weight="750">Plugins</text>
  <text x="56" y="242" fill="#0f766e" font-family="ui-sans-serif, system-ui, -apple-system, Segoe UI, sans-serif" font-size="22" font-weight="500" opacity="0.85">Opt-in crates behind Cargo features</text>
  <g transform="translate(720,70)" opacity="0.95">
  <g>
    <rect x="90" y="70" width="100" height="100" rx="22" fill="white" stroke="#0f766e" stroke-width="3"/>
    <rect x="210" y="70" width="100" height="100" rx="22" fill="#ecfdf5" stroke="#0f766e" stroke-width="3"/>
    <rect x="150" y="190" width="100" height="100" rx="22" fill="white" stroke="#0f766e" stroke-width="3"/>
    <path d="M140 120h70M260 120v70M200 190v-20" stroke="#0d9488" stroke-width="4" stroke-linecap="round"/>
  </g>
</g>
</svg>
